<?xml version="1.0" encoding="UTF-8"?>
<svg width="36px" height="36px" viewBox="0 0 36 36" version="1.1" xmlns="http://www.w3.org/2000/svg" xmlns:xlink="http://www.w3.org/1999/xlink">
    <!-- Generator: Sketch 63 (92445) - https://sketch.com -->
    <title>椭圆形备份 19</title>
    <desc>Created with Sketch.</desc>
    <defs>
        <circle id="path-1" cx="18" cy="18" r="18"></circle>
    </defs>
    <g id="页面-1" stroke="none" stroke-width="1" fill="none" fill-rule="evenodd">
        <g id="收起状态选中导航栏-hover记账任务" transform="translate(-1790.000000, -12.000000)">
            <g id="顶部栏">
                <g id="头像" transform="translate(1790.000000, 12.000000)">
                    <g id="男">
                        <mask id="mask-2" fill="white">
                            <use xlink:href="#path-1"></use>
                        </mask>
                        <use id="蒙版" fill="#DBE8FF" xlink:href="#path-1"></use>
                        <g mask="url(#mask-2)" fill="#5F708D" fill-rule="nonzero" id="路径">
                            <g transform="translate(4.000000, 4.000000)">
                                <path d="M27.9937869,30.5098116 C28.0124628,30.5504247 20.8813703,32 13.9971473,32 C7.11917423,32 -0.0744169439,30.5691692 0.0005814288,30.4910671 C0.125578654,29.5538416 0.563069005,28.0761496 1.11618179,27.3107488 C1.63179539,26.5890853 2.32553008,26.0236259 3.053639,25.548765 C3.84424654,25.0520355 4.68797791,24.6740213 5.544209,24.3178756 C6.30044229,24.0054672 7.06605041,23.7086791 7.80665903,23.3681539 C8.01915433,23.2713073 8.22852472,23.1682124 8.4378951,23.0619936 C9.24100237,22.6214976 10.1066083,22.0591624 10.4222263,21.1344333 C10.434726,21.0282144 10.4441008,20.9219955 10.4534756,20.8126525 C10.5128493,20.1347262 10.5034745,19.4724202 10.4972246,18.7913697 C10.4940997,18.5258225 10.4972247,18.2384067 10.4972246,17.9728595 C10.1034833,17.6729474 9.84723898,17.2324514 9.60974423,16.7982037 C9.21287801,16.0328029 8.92538434,15.2080445 8.80351202,14.3520453 C8.80038708,14.3270526 8.7816375,14.305184 8.75351314,14.2989358 C8.31602279,14.1989651 7.9941549,13.824075 7.82540864,13.4148199 C7.62853799,12.9493313 7.53166513,12.4494777 7.50041582,11.9496241 C7.47541636,11.4685151 7.66603717,10.9811578 8.0222793,10.6656253 C8.05665355,10.6343845 8.07227818,10.5875232 8.05977846,10.543786 C7.69728645,9.03797716 7.43166733,7.49155522 7.49416594,5.935761 C7.53479004,4.95792247 7.70978618,3.96758763 8.12540201,3.08347163 C8.4660195,2.35868397 8.97538325,1.71199844 9.61599408,1.24338572 C10.9034657,0.293663969 12.5378046,0.0249926875 14.0877704,0 C14.962751,0.0156204375 15.8783558,0.140583813 16.6377141,0.618568781 C16.9189578,0.790393438 17.1470778,1.04032022 17.3283238,1.31523969 C18.0658075,1.43083081 18.8064162,1.70262619 19.3657788,2.22747241 C20.1751359,2.98350091 20.5470027,4.10192325 20.6563753,5.19222884 C20.8407462,7.00107391 20.4938789,8.81304306 19.9938899,10.5375378 C19.9813902,10.5843991 19.9938899,10.6343845 20.0313891,10.6656253 C20.4063808,10.9967783 20.5938767,11.5185004 20.5438778,12.0246022 C20.487629,12.6244264 20.3657567,13.2492434 20.0282642,13.7647174 C19.856393,14.0240164 19.5938988,14.2145856 19.2939054,14.2895636 C19.2689059,14.2958118 19.2501564,14.3145563 19.2470314,14.342673 C19.1189093,15.2486576 18.8189159,16.1265254 18.3908003,16.9325393 C18.178305,17.3168017 17.9439352,17.69794 17.5939429,17.9666113 C17.5939429,18.2415308 17.5876931,18.5164503 17.5876931,18.7913697 C17.5814432,19.4724202 17.5783183,20.1534707 17.6408169,20.8345211 L17.6689413,21.125061 C17.9251856,21.8904618 18.5845461,22.415308 19.2345317,22.821439 C19.5657744,23.0120082 19.9032669,23.1869569 20.2501343,23.3462853 C20.984493,23.6899346 21.7438513,23.9835986 22.4938347,24.2928829 C23.478188,24.699014 24.4500415,25.1363858 25.3281472,25.7549546 C26.2687514,26.4016401 27.0937332,27.2763839 27.5280986,28.3604413 C27.7530936,28.8946598 27.9218399,29.9318559 27.9937869,30.5098116 Z"></path>
                            </g>
                        </g>
                    </g>
                </g>
            </g>
        </g>
    </g>
</svg>