<?xml version="1.0" encoding="UTF-8"?>
<svg width="20px" height="20px" viewBox="0 0 20 20" version="1.1" xmlns="http://www.w3.org/2000/svg" xmlns:xlink="http://www.w3.org/1999/xlink">
    <title>编组 29</title>
    <g id="2.7" stroke="none" stroke-width="1" fill="none" fill-rule="evenodd">
        <g id="09-图标选中/未选中" transform="translate(-115.000000, -563.000000)">
            <g id="编组-29" transform="translate(115.000000, 563.000000)">
                <rect id="矩形备份-47" x="0" y="0" width="20" height="20"></rect>
                <g id="编组-15" transform="translate(2.000000, 2.000000)">
                    <path d="M5.76998581,0.85 L8.49450868,2.85 L14,2.85 C14.3175637,2.85 14.6050637,2.97871813 14.8131728,3.1868272 C15.0212819,3.39493627 15.15,3.68243627 15.15,4 L15.15,4 L15.15,14 C15.15,14.3175637 15.0212819,14.6050637 14.8131728,14.8131728 C14.6050637,15.0212819 14.3175637,15.15 14,15.15 L14,15.15 L2,15.15 C1.68243627,15.15 1.39493627,15.0212819 1.1868272,14.8131728 C0.978718134,14.6050637 0.85,14.3175637 0.85,14 L0.85,14 L0.85,2 C0.85,1.68243627 0.978718134,1.39493627 1.1868272,1.1868272 C1.39493627,0.978718134 1.68243627,0.85 2,0.85 L2,0.85 L5.76998581,0.85 Z" id="形状结合" stroke="#333333" stroke-width="1.7"></path>
                    <path d="M8.36187037,5.36332418 L9.49324122,6.49469503 L7.26265104,8.72532418 L11.9417876,8.72605668 L11.9417876,10.3260567 L7.38465104,10.3253242 L9.49324122,12.434392 L8.36187037,13.5657628 L4.26065104,9.46454351 L8.36187037,5.36332418 Z" id="形状结合备份" fill="#333333" fill-rule="nonzero" transform="translate(8.101219, 9.464544) rotate(-90.000000) translate(-8.101219, -9.464544) "></path>
                </g>
            </g>
        </g>
    </g>
</svg>