<?xml version="1.0" encoding="UTF-8"?>
<svg width="20px" height="20px" viewBox="0 0 20 20" version="1.1" xmlns="http://www.w3.org/2000/svg" xmlns:xlink="http://www.w3.org/1999/xlink">
    <title>编组 34</title>
    <g id="2.7" stroke="none" stroke-width="1" fill="none" fill-rule="evenodd">
        <g id="09-图标选中/未选中" transform="translate(-186.000000, -563.000000)">
            <g id="编组-34" transform="translate(186.000000, 563.000000)">
                <rect id="矩形" x="0" y="0" width="20" height="20"></rect>
                <path d="M8.04847713,2 L10.773,4 L16,4 C17.1045695,4 18,4.8954305 18,6 L18,16 C18,17.1045695 17.1045695,18 16,18 L4,18 C2.8954305,18 2,17.1045695 2,16 L2,4 C2,2.8954305 2.8954305,2 4,2 L8.04847713,2 Z M10.9627325,7.62397522 L9.3627325,7.62397522 L9.362,12.3031118 L7.13137085,10.0725216 L6,11.2038925 L10.1012193,15.3051118 L14.2024387,11.2038925 L13.0710678,10.0725216 L10.962,12.1811118 L10.9627325,7.62397522 Z" id="形状结合" fill="#00CD96"></path>
            </g>
        </g>
    </g>
</svg>