<?xml version="1.0" encoding="UTF-8"?>
<svg width="20px" height="20px" viewBox="0 0 20 20" version="1.1" xmlns="http://www.w3.org/2000/svg" xmlns:xlink="http://www.w3.org/1999/xlink">
    <title>编组 10备份</title>
    <g id="2.7" stroke="none" stroke-width="1" fill="none" fill-rule="evenodd">
        <g id="09-图标选中/未选中" transform="translate(-115.000000, -440.000000)">
            <g id="编组-10备份" transform="translate(115.000000, 440.000000)">
                <rect id="矩形" x="0" y="0" width="20" height="20"></rect>
                <path d="M15.489425,9.59508305 L15.63869,9.67210926 L19.0371147,11.6396183 L19.1119592,11.7694323 L19.1119592,16.6219097 L19.0371147,16.7517237 L15.63869,18.7192327 C15.1508573,19.0016622 14.559582,19.0273376 14.0529416,18.7962589 L13.9036766,18.7192327 L10.5052518,16.7517237 L10.4304073,16.6219097 L10.4304073,11.7694323 L10.5052518,11.6396183 L13.9036766,9.67210926 C14.3915092,9.38967982 14.9827845,9.36400442 15.489425,9.59508305 Z M10.0269085,0.1 C12.8609514,0.1 15.1583972,2.39744571 15.1583972,5.23148863 C15.1583972,7.90828674 13.1043406,10.1188771 10.4672637,10.3441926 L10.2461893,10.3583408 L10.092,10.361 L10.0433578,10.4157013 C6.20598481,10.8525275 3.20893104,13.9399186 2.85778764,17.7593973 L2.83831777,18.0150927 L2.82680651,18.2728309 L2.82326679,18.5176271 L2.67328247,18.6654583 L1.25,18.6654583 L1.1,18.5154583 C1.1,14.5231482 3.49096917,10.9769332 7.08421145,9.43599919 L6.93096164,9.32345581 C5.79513495,8.46467965 5.05885935,7.16792844 4.91951186,5.73054087 L4.90115778,5.47548487 L4.89541991,5.23148863 C4.89541991,2.39744571 7.19286562,0.1 10.0269085,0.1 Z M14.7752629,11.1634832 L14.7670763,11.1634832 L12.154,12.675 L12.154,15.713 L14.7679076,17.2288672 L14.7752505,17.227866 L17.388,15.713 L17.388,12.675 L14.7752629,11.1634832 Z M10.0269085,1.82328247 C8.14460825,1.82328247 6.61870237,3.34918834 6.61870237,5.23148863 C6.61870237,7.11378892 8.14460825,8.63969479 10.0269085,8.63969479 C11.9092088,8.63969479 13.4351147,7.11378892 13.4351147,5.23148863 C13.4351147,3.34918834 11.9092088,1.82328247 10.0269085,1.82328247 Z" id="形状结合" fill="#333333" fill-rule="nonzero"></path>
            </g>
        </g>
    </g>
</svg>