<?xml version="1.0" encoding="UTF-8"?>
<svg width="107px" height="24px" viewBox="0 0 107 24" version="1.1" xmlns="http://www.w3.org/2000/svg" xmlns:xlink="http://www.w3.org/1999/xlink">
    <title>编组 2</title>
    <g id="页面-1" stroke="none" stroke-width="1" fill="none" fill-rule="evenodd">
        <g id="控制台顶部-logo替换备份" transform="translate(-30.000000, -20.000000)" fill="#FFFFFF" fill-rule="nonzero">
            <g id="编组" transform="translate(30.000000, 20.000000)">
                <g transform="translate(51.000000, 4.000000)">
                    <polygon id="路径" points="36.836129 2.44640625 28.2658065 2.44640625 28.2709677 0.3559375 36.8412903 0.3559375"></polygon>
                    <polygon id="路径" points="20.4412903 9.8865625 20.1393548 0.9403125 21.8477419 0.94296875 22.1496774 9.891875"></polygon>
                    <polygon id="路径" points="25.4529032 9.8971875 25.7935484 0.95359375 27.5019355 0.95625 27.1612903 9.9025"></polygon>
                    <path d="M32.7354839,0.3665625 L32.7045161,14.1365625 C32.7045161,14.5270313 32.3948387,14.843125 32.0180645,14.8404687 L29.3574194,14.8325 L29.3522581,16.9229688 L32.6967742,16.9335989 C33.9174194,16.93625 34.9109677,15.9189063 34.9135484,14.6625 L34.9445161,0.371875 L32.7354839,0.3665625 Z" id="路径"></path>
                    <polygon id="矩形" transform="translate(23.819996, 4.706484) rotate(-89.866891) translate(-23.819996, -4.706484) " points="19.1211464 3.70292076 28.5189829 3.70229934 28.5188462 5.71004701 19.1210098 5.71066844"></polygon>
                    <polygon id="路径" points="20.1651613 16.9096875 22.8154839 9.403125 24.8258065 9.403125 22.1729032 16.9096875"></polygon>
                    <polygon id="路径" points="27.476129 16.9096875 24.8258065 9.403125 22.8180645 9.403125 25.4683871 16.9096875"></polygon>
                    <polygon id="路径" points="16.9574194 2.975 0.157419355 2.975 0.162580645 0.935 16.9625806 0.935"></polygon>
                    <path d="M13.5045161,3.67624448 L3.66193548,3.67624448 C2.51354839,3.67359375 1.57935484,4.62984375 1.57676883,5.811875 C1.57419355,6.99390625 2.50322581,7.95546875 3.6516129,7.95813066 L13.4941935,7.95813066 C14.6425806,7.96078125 15.5767688,7.0284375 15.5793602,5.84640625 L15.5793602,5.811875 C15.5819355,4.62984375 14.6529032,3.67890625 13.5045161,3.67624448 M3.88903226,5.40015625 L13.2670968,5.4240625 C13.4890323,5.4240625 13.6696774,5.58609375 13.6696774,5.8171875 L13.6696774,5.84109375 C13.6696774,6.06953125 13.4890323,6.23421875 13.2645161,6.2315625 L3.88645161,6.2315625 C3.66451613,6.2315625 3.48387097,6.045625 3.48387097,5.81453125 C3.48387097,5.58609375 3.66709677,5.40015625 3.88903226,5.40015625" id="形状"></path>
                    <path d="M13.7109677,11.4803125 L3.41677419,11.4803125 L3.40645161,15.7675053 L11.483871,15.7675053 C12.7096774,15.7701563 13.7032258,14.7714063 13.7058065,13.5096875 L13.7109677,11.4803125 Z M5.32129032,13.1590625 L11.7987097,13.1590625 L11.7987097,13.5521875 C11.7987097,13.8603125 11.5535484,14.0940625 11.2567742,14.0940625 L5.31870968,14.0940625 L5.32129032,13.1590625 Z" id="形状"></path>
                    <polygon id="路径" points="16.9574194 10.6329687 0.157419355 10.6329687 0.162580645 8.64078125 16.9625806 8.64078125"></polygon>
                    <polygon id="矩形" transform="translate(1.200853, 12.789928) rotate(-89.869075) translate(-1.200853, -12.789928) " points="-2.91229014 11.7411603 5.31413636 11.7406253 5.31399591 13.8386956 -2.9124306 13.8392307"></polygon>
                    <polygon id="路径" points="7.57677419 0.988125 7.25677419 0.0478125 9.35483871 0.053125 9.67483871 0.9934375"></polygon>
                    <path d="M14.8645161,8.70984375 L14.8516129,14.1365625 C14.8516129,14.5270313 14.5419355,14.843125 14.1625806,14.843125 L13.8864516,14.843125 L13.8812903,16.9335938 L14.9109677,16.9362556 C16.0335484,16.9389063 16.9445161,16.0039063 16.9470968,14.8510938 L16.96,8.7178125 L14.8645161,8.70984375 Z" id="路径"></path>
                    <polygon id="路径" points="54.6451613 2.69609375 40.0877419 2.6934375 40.0929032 0.54984375 54.6503226 0.5525"></polygon>
                    <polygon id="路径" points="55.7754839 8.23703125 38.9806452 8.23703125 38.9832258 6.0934375 55.7780645 6.0934375"></polygon>
                    <polygon id="路径" points="39.6154839 16.6626563 42.9341935 7.5065625 45.1612903 7.511875 41.8451613 16.6653125"></polygon>
                    <path d="M54.4851613,14.9121875 L52.8206452,10.6515625 L50.5909677,10.6515625 L51.9922581,14.2375 C52.0541935,14.3995312 51.9406452,14.5775 51.7703226,14.5775 L41.3832258,14.5801562 L41.3780645,16.670625 L53.3393548,16.6653125 C54.2141935,16.6626563 54.8129032,15.7489063 54.4851613,14.9121875" id="路径"></path>
                </g>
                <g id="路径">
                    <path d="M3.16431138,11.1634457 C3.16431138,7.7772784 5.95976048,5.02212235 9.3954491,5.02212235 L18.6011976,5.02212235 C19.1202395,3.97303371 19.7631138,2.99405743 20.5087425,2.10596754 L9.39281437,2.10596754 C4.32622754,2.10596754 0.202874251,6.16988764 0.202874251,11.1634457 C0.202874251,16.1570037 4.32622754,20.2209238 9.39281437,20.2209238 C11.7877844,20.2209238 14.0562874,19.3172534 15.7767665,17.6787016 C15.9032335,17.5566542 16.0270659,17.43201 16.1456287,17.304769 L9.39281437,17.304769 C5.95976048,17.3021723 3.16431138,14.549613 3.16431138,11.1634457 Z"></path>
                    <path d="M43.7892216,10.4285643 C43.7338922,9.4729588 43.5573653,8.37972534 43.1015569,7.2293633 C41.4047904,2.93692884 37.2735329,0.0856928839 32.4651497,0.168789014 L29.3667066,0.168789014 C26.234012,0.16619226 23.222515,2.99665418 22.0737725,5.0247191 L31.5561677,5.0247191 C34.9865868,5.0247191 37.8558084,7.7097628 37.8953293,11.0907366 C37.9058683,11.9476654 37.7372455,12.7656429 37.4237126,13.5083146 C36.4594012,15.7337328 34.1750898,17.3021723 31.571976,17.3021723 L21.7312575,17.3021723 L19.7894611,17.3021723 C17.8265868,20.5247441 14.3645509,22.7605493 10.354491,23.0721598 L10.354491,23.1111111 L31.6826347,23.1111111 C31.8486228,23.1111111 32.011976,23.1059176 32.1753293,23.1007241 C38.6172455,22.9890637 43.8050299,17.8111361 43.8050299,11.4361049 C43.8076647,11.4049438 43.8050299,10.6778527 43.7892216,10.4285643 Z"></path>
                </g>
            </g>
        </g>
    </g>
</svg>