<?xml version="1.0" encoding="UTF-8"?>
<svg width="20px" height="20px" viewBox="0 0 20 20" version="1.1" xmlns="http://www.w3.org/2000/svg" xmlns:xlink="http://www.w3.org/1999/xlink">
    <title>编组 66备份 5</title>
    <g id="2.7" stroke="none" stroke-width="1" fill="none" fill-rule="evenodd">
        <g id="09-图标选中/未选中" transform="translate(-115.000000, -500.000000)">
            <g id="编组-66备份-5" transform="translate(115.000000, 500.000000)">
                <polygon id="路径" points="0 0 20 0 20 20 0 20"></polygon>
                <path d="M16.6666667,17.5 L3.33333333,17.5 C2.41285875,17.5 1.66666667,16.7538079 1.66666667,15.8333333 L1.66666667,4.16666667 C1.66666667,3.24619208 2.41285875,2.5 3.33333333,2.5 L16.6666667,2.5 C17.5871412,2.5 18.3333333,3.24619208 18.3333333,4.16666667 L18.3333333,15.8333333 C18.3333333,16.7538079 17.5871412,17.5 16.6666667,17.5 Z M9.16666667,12.5 L3.33333333,12.5 L3.33333333,15.8333333 L9.16666667,15.8333333 L9.16666667,12.5 Z M16.6666667,9.16666667 L10.8333333,9.16666667 L10.8333333,15.8333333 L16.6666667,15.8333333 L16.6666667,9.16666667 Z M9.16666667,4.16666667 L3.33333333,4.16666667 L3.33333333,10.8333333 L9.16666667,10.8333333 L9.16666667,4.16666667 Z M16.6666667,4.16666667 L10.8333333,4.16666667 L10.8333333,7.5 L16.6666667,7.5 L16.6666667,4.16666667 Z" id="形状" fill="#333333" fill-rule="nonzero"></path>
            </g>
        </g>
    </g>
</svg>