<?xml version="1.0" encoding="UTF-8"?>
<svg width="20px" height="20px" viewBox="0 0 20 20" version="1.1" xmlns="http://www.w3.org/2000/svg" xmlns:xlink="http://www.w3.org/1999/xlink">
    <title>home-5-line_export备份</title>
    <g id="2.7" stroke="none" stroke-width="1" fill="none" fill-rule="evenodd">
        <g id="09-图标选中/未选中" transform="translate(-115.000000, -380.000000)">
            <g id="home-5-line" transform="translate(115.000000, 380.000000)">
                <polygon id="路径" points="0 0 20 0 20 20 0 20"></polygon>
                <path d="M10.8888899,16.5478638 L16.2222231,16.5478638 L16.2222231,8.52830847 L10.0000011,3.68919749 L3.77777901,8.52830847 L3.77777901,16.5478638 L9.1111122,16.5478638 L9.1111122,11.2145306 L10.8888899,11.2145306 L10.8888899,16.5478638 Z M16.3333335,18.3256415 L3.66666688,18.3256415 C2.7461923,18.3256415 2.00000021,17.5794495 2.00000021,16.6589749 L2.00000021,8.09453071 L2.00000021,8.09453071 C1.99981084,7.82003498 2.12645115,7.56084885 2.34311238,7.3923085 L9.4542233,1.86164199 C9.77523094,1.61193061 10.2247712,1.61193061 10.5457788,1.86164199 L17.6568897,7.3923085 C17.873551,7.56084885 18.0001913,7.82003498 18.0000002,8.09453071 L18.0000002,16.6589749 C18.0000002,17.5794495 17.2538081,18.3256415 16.3333335,18.3256415 Z" id="形状" fill="#333333" fill-rule="nonzero"></path>
            </g>
        </g>
    </g>
</svg>