<?xml version="1.0" encoding="UTF-8"?>
<svg width="20px" height="20px" viewBox="0 0 20 20" version="1.1" xmlns="http://www.w3.org/2000/svg" xmlns:xlink="http://www.w3.org/1999/xlink">
    <title>编组 3备份 3</title>
    <g id="2.7" stroke="none" stroke-width="1" fill="none" fill-rule="evenodd">
        <g id="09-图标选中/未选中" transform="translate(-186.000000, -380.000000)">
            <g id="编组-3备份-3" transform="translate(186.000000, 380.000000)">
                <polygon id="路径" points="0 0 20 0 20 20 0 20"></polygon>
                <path d="M15.8333323,17.5 L4.16666567,17.5 C3.24619108,17.5 2.499999,16.7538079 2.499999,15.8333333 L2.499999,7.90833333 L2.499999,7.90833333 C2.49982146,7.65099358 2.61854675,7.40800658 2.82166667,7.25 L9.48833333,2.065 C9.789278,1.83089558 10.210722,1.83089558 10.5116667,2.065 L17.1783333,7.25 C17.3814532,7.40800658 17.5001785,7.65099358 17.499999,7.90833333 L17.499999,15.8333333 C17.499999,16.7538079 16.7538069,17.5 15.8333323,17.5 Z M9.16666667,10.8333333 L9.16666667,15.8333333 L10.8333333,15.8333333 L10.8333333,10.8333333 L9.16666667,10.8333333 Z" id="形状" fill="#00CD96" fill-rule="nonzero"></path>
            </g>
        </g>
    </g>
</svg>